<?xml version="1.0" encoding="UTF-8"?><svg id="_イヤー_1" xmlns="http://www.w3.org/2000/svg" viewBox="0 0 37.56 32.43"><path d="M3.54,28.56c-.3-.19-.66-.28-1.01-.27-.81,0-1.21,.45-1.21,1.36,0,1.08,.42,1.62,1.26,1.62,.33,0,.65-.05,.96-.14v-2.57Zm1.3,3.51c-.75,.2-1.53,.31-2.31,.31C.86,32.38,.02,31.48,.02,29.69c-.18-1.19,.64-2.3,1.83-2.47,.2-.03,.41-.03,.61,0,.37,0,.73,.09,1.07,.25v-2.11h1.3v6.72Zm2.53-6.72v1.03h-1.3v-1.03h1.3Zm0,1.87v5.16h-1.3v-5.16h1.3Zm1.23,4.92v-1.08c.63,.24,1.31,.36,1.98,.34,.56,0,.84-.18,.84-.54s-.19-.52-.57-.52h-.93c-.75,.11-1.46-.41-1.57-1.16-.02-.13-.02-.26,0-.39,0-1.08,.76-1.62,2.29-1.62,.62,0,1.24,.1,1.83,.29v1.08c-.59-.23-1.23-.35-1.87-.34-.7,0-1.06,.18-1.06,.54s.2,.52,.61,.52h.84c1.15,0,1.72,.52,1.72,1.55s-.73,1.62-2.19,1.62c-.66,0-1.31-.09-1.93-.3h0Zm8.85,.1c-.44,.1-.88,.15-1.33,.15-1.83,0-2.74-.89-2.74-2.68,0-1.66,.92-2.48,2.75-2.48,.45,0,.89,.05,1.33,.15v1.03c-.4-.1-.81-.14-1.23-.15-1.03,0-1.55,.48-1.55,1.45,0,1.1,.52,1.65,1.55,1.65,.41,0,.83-.05,1.23-.15v1.03Zm1.92-2.45c0,1.08,.42,1.62,1.25,1.62s1.25-.54,1.25-1.62c0-1.05-.42-1.58-1.25-1.58-.84,0-1.25,.53-1.26,1.58h0Zm-1.3,.02c0-1.73,.85-2.6,2.55-2.6,1.7,0,2.55,.86,2.55,2.6s-.85,2.59-2.55,2.59-2.56-.86-2.56-2.59h0Zm5.48-2.58h1.37l1.25,3.61,1.3-3.61h1.37l-2.09,5.16h-1.24l-1.97-5.16Zm8.1,0c1.15-.15,2.2,.66,2.35,1.81,.03,.2,.02,.4,0,.59,0,.21-.01,.43-.04,.64h-3.42c0,.73,.53,1.09,1.6,1.09,.52,0,1.05-.05,1.56-.15v1.03c-.55,.11-1.1,.16-1.66,.15-1.87,0-2.81-.88-2.81-2.64,0-1.68,.8-2.52,2.42-2.52h0Zm-1.12,2.13h2.2v-.04c.07-.52-.29-1-.81-1.07-.09-.01-.18-.01-.27,0-.69,0-1.07,.37-1.12,1.11h0Zm4.44,3.03v-5.16h1.01l.16,.66c.37-.4,.89-.64,1.44-.66v1.05c-.5,0-.97,.23-1.3,.6v3.51h-1.3Z" style="fill:#acaaaa;"/><path d="M12.82,4.87c-1.55,2.3-2.41,5-2.48,7.77,0,3.7,2.99,6.7,6.68,6.7,3.69,0,6.69-2.99,6.69-6.69h0c-.07-2.79-.93-5.48-2.48-7.78-.61-.95-1.37-1.8-2.25-2.52-.99-1.08-2.67-1.16-3.75-.17-.06,.05-.12,.11-.17,.17-.88,.72-1.64,1.57-2.25,2.52Zm1.34-3.7c1.59-1.57,4.15-1.57,5.74,0,1.01,.81,1.87,1.78,2.58,2.87,1.71,2.54,2.66,5.53,2.73,8.59,0,4.52-3.66,8.18-8.17,8.18s-8.17-3.66-8.17-8.18h0c.07-3.07,1.01-6.05,2.73-8.59,.7-1.09,1.57-2.06,2.58-2.87h0Z" style="fill:#acaaaa; fill-rule:evenodd;"/></svg>