<svg xmlns="http://www.w3.org/2000/svg" width="30.414" height="35" viewBox="0 0 30.414 35"><defs><style>.a,.b{fill:#acaaaa;}.a{fill-rule:evenodd;}</style></defs><path class="a" d="M60.687,863.727a1.844,1.844,0,0,1,2.484,0v0l9.209,8.369.013.012a1.877,1.877,0,0,1,.588,1.334v10.665a1.842,1.842,0,0,1-1.842,1.843H65.614a1.842,1.842,0,0,1-1.842-1.843v-5.527H60.087v5.527a1.842,1.842,0,0,1-1.842,1.843H52.717a1.842,1.842,0,0,1-1.842-1.843V873.444a1.877,1.877,0,0,1,.588-1.334l.013-.012,9.209-8.369Z" transform="translate(-47.006 -863.246)"/><path class="b" d="M46.806,899.62v-7.3h1.353v3.013h3.6v-3.013h1.353v7.3H51.76v-3.115h-3.6v3.115Zm8.994-3.672q0,2.549,2.263,2.548,2.206,0,2.206-2.548,0-2.507-2.206-2.508Q55.8,893.44,55.8,895.948Zm-1.4.03q0-3.713,3.667-3.712,3.611,0,3.611,3.712,0,3.693-3.611,3.693Q54.559,899.672,54.4,895.978Zm8.56,3.642v-7.3h1.4l2.477,5.542,2.426-5.542h1.353v7.3H69.365v-5.087l-1.982,5.087H66.229l-2.022-5.087v5.087Zm14.193-7.3v1.165H73.491v1.839h3.483v1.209h-3.5v1.916h3.744v1.174H72.148v-7.3Z" transform="translate(-46.806 -864.671)"/></svg>