<?xml version="1.0" encoding="UTF-8"?>
<svg id="_イヤー_2" data-name=" イヤー 2" xmlns="http://www.w3.org/2000/svg" width="42.42" height="61.92" viewBox="0 0 42.42 61.92">
  <g id="_イヤー_1-2" data-name=" イヤー 1-2">
    <g transform="translate(1 1)">
      <path d="M5.74,48.94v10.87h5.29v2.09H3.28v-12.94h2.46v-.02Zm9.88,0v1.9h-2.46v-1.9h2.46Zm0,3.44v9.5h-2.46v-9.5h2.46Zm2.34,9.5v-12.94h2.46v4.18c.99-.49,2.08-.74,3.19-.74,2.5,0,3.75,.91,3.75,2.75,0,1.33-.87,2.36-2.6,3.12l3.04,3.66h-3.02l-2.55-3.39v-1.11c1.79-.37,2.67-.98,2.67-1.8s-.59-1.26-1.77-1.28c-.95,.03-1.87,.3-2.71,.76v6.84h-2.48l.02-.03Zm15.38-9.5c2.19-.29,4.18,1.21,4.46,3.32,.05,.37,.05,.72,0,1.1,0,.39-.03,.79-.09,1.18h-6.49c0,1.33,1.01,2.01,3.04,2.01,.99,0,1.98-.08,2.97-.27v1.9c-1.04,.2-2.1,.29-3.16,.27-3.54,0-5.33-1.62-5.33-4.85s1.53-4.65,4.6-4.65Zm-2.13,3.93h4.17v-.07c.14-.96-.56-1.84-1.54-1.97-.17-.02-.35-.02-.52,0-1.3,0-2.01,.67-2.12,2.04h.02Z" style="fill: #acaaaa;"/>
      <path d="M34.03,41.49c-8.99,.35-18,.34-26.97-.03-2.48-.1-5.1,0-6.23-2.61-.52-1.21-.56-2.54-.59-3.84L.01,25.85c-.05-2.33-.03-4.89,1.53-6.67,1.04-1.2,2.64-1.82,4.22-2.04s3.21-.05,4.81,.12c2.15-4.74,4.32-9.45,6.47-14.19,.45-.98,.95-2.02,1.87-2.61,1.35-.84,3.18-.42,4.5,.46,1.94,1.28,3.14,3.42,3.66,5.63s.42,4.53,.17,6.79c2.66,.47,5.38-.1,8.07,0,2.69,.1,5.69,1.11,6.72,3.54,.62,1.5,.36,3.19,.09,4.79l-2.62,15.3c-.24,1.4-.56,2.93-1.74,3.77-.9,.66-2.1,.72-3.21,.78-.19,0-.36,0-.56,.02l.03-.03Zm-20.55-3.2h20.57c1.09,0,2.01-.78,2.19-1.82l2.73-17.24c.16-.94-.38-1.89-1.28-2.28-.28-.12-.59-.19-.9-.19h-11.21c-.95,0-1.74-.76-1.74-1.69V7.42c0-1.85-1.28-3.45-3.12-3.93l-7.24,15.77v19.03h.02ZM5.81,20.6c-1.22,0-2.2,.94-2.2,2.12v13.41c0,.29,.05,.56,.17,.83,0,0,.16,.37,.49,.69,.47,.47,2.38,.84,4.93,.66l.28-17.71h-3.66Z" style="fill: #acaaaa;"/>
    </g>
  </g>
</svg>