<svg xmlns="http://www.w3.org/2000/svg" width="29.53" height="23.428" viewBox="0 0 29.53 23.428">
  <g id="_" data-name="✕" transform="translate(2.784 -0.449)">
    <path id="パス_118" data-name="パス 118" d="M1.284,5.3,29.495.016c.589-.11.977.35.867,1.028A1.786,1.786,0,0,1,29.1,2.471L.885,7.752C.3,7.862-.092,7.4.019,6.724A1.786,1.786,0,0,1,1.284,5.3Z" transform="translate(-2.784 17.438) rotate(-34)" fill="#707070"/>
    <path id="パス_119" data-name="パス 119" d="M.748.016,27.4,5.337a1.58,1.58,0,0,1,1.094,1.241c.1.585-.226.978-.73.877L1.112,2.134A1.58,1.58,0,0,1,.018.893C-.082.308.244-.085.748.016Z" transform="translate(21.527 22.733) rotate(-146)" fill="#707070"/>
  </g>
</svg>
