<svg xmlns="http://www.w3.org/2000/svg" width="368" height="49" viewBox="0 0 368 49"><defs><style>.a{fill:#efefef;}.b,.d{fill:#acaaaa;}.c{fill:#333;}.c,.d{fill-rule:evenodd;}</style></defs><g transform="translate(-30 -141)"><rect class="a" width="368" height="49" rx="12" transform="translate(30 141)"/><path class="b" d="M77.806,168.731v-.913a7.723,7.723,0,0,0,2.61.43q1.982,0,1.982-1.45,0-1.236-1.461-1.236h-.988q-2.412,0-2.412-2.094,0-2.2,3.088-2.2a9.255,9.255,0,0,1,2.5.322v.913a7.115,7.115,0,0,0-2.5-.43q-2.095,0-2.095,1.4,0,1.234,1.418,1.235h.988q2.455,0,2.455,2.1,0,2.256-2.976,2.256A10.1,10.1,0,0,1,77.806,168.731Zm9.254-5.371a2.115,2.115,0,0,1,2.406,2.38,5.876,5.876,0,0,1-.048.725H85.46q0,1.729,2.019,1.729a6.157,6.157,0,0,0,1.708-.215v.806a6.649,6.649,0,0,1-1.815.215q-2.906,0-2.906-2.884Q84.466,163.361,87.06,163.36Zm-1.6,2.278H88.51q-.032-1.483-1.45-1.483A1.42,1.42,0,0,0,85.46,165.638Zm5.076,1.659q0-1.734,2.288-1.735a10.122,10.122,0,0,1,1.472.108v-.532q0-.972-1.52-.972a6.305,6.305,0,0,0-1.783.269v-.806a6.305,6.305,0,0,1,1.783-.269q2.514,0,2.514,1.751V169H94.73l-.344-.559a3.255,3.255,0,0,1-1.837.559Q90.535,169,90.535,167.3Zm2.288-.929q-1.294,0-1.294.913t1.021.913a2.779,2.779,0,0,0,1.746-.548v-1.17A10.122,10.122,0,0,0,92.823,166.368ZM96.905,169v-5.64h.671l.177.72a2.467,2.467,0,0,1,1.783-.72v.828a2.079,2.079,0,0,0-1.638.714V169Zm7.874-.161a6.7,6.7,0,0,1-1.5.161q-3.008,0-3.007-2.927,0-2.713,3.007-2.713a6.7,6.7,0,0,1,1.5.161v.806a6.956,6.956,0,0,0-1.557-.161,1.71,1.71,0,0,0-1.961,1.907q0,2.121,1.961,2.121a6.9,6.9,0,0,0,1.557-.161Zm1.268.161v-7.681h.994v2.654a2.612,2.612,0,0,1,1.756-.613,1.861,1.861,0,0,1,2.111,2.1V169h-.994v-3.556a1.108,1.108,0,0,0-1.251-1.256,2.359,2.359,0,0,0-1.622.714V169Z"/><path class="c" d="M361.125,170.8a.781.781,0,0,1,.781-.781h9.375a.781.781,0,1,1,0,1.562h-9.375A.781.781,0,0,1,361.125,170.8Z"/><path class="c" d="M373.625,170.8a.781.781,0,0,1,.781-.781h4.688a.781.781,0,1,1,0,1.562h-4.688A.781.781,0,0,1,373.625,170.8Z"/><path class="c" d="M361.125,162.2a.781.781,0,0,1,.781-.781h3.125a.781.781,0,1,1,0,1.562h-3.125A.781.781,0,0,1,361.125,162.2Z"/><path class="c" d="M367.375,162.2a.781.781,0,0,1,.781-.781h10.938a.781.781,0,1,1,0,1.562H368.156A.781.781,0,0,1,367.375,162.2Z"/><path class="c" d="M368.156,159.078a.782.782,0,0,1,.782.781v4.688a.781.781,0,0,1-1.563,0v-4.688A.781.781,0,0,1,368.156,159.078Z"/><path class="c" d="M374.406,167.672a.782.782,0,0,1,.782.781v4.688a.781.781,0,0,1-1.563,0v-4.688A.781.781,0,0,1,374.406,167.672Z"/><path class="d" d="M54.609,158.969a5.641,5.641,0,1,0,5.641,5.64A5.64,5.64,0,0,0,54.609,158.969Zm-6.828,5.64a6.828,6.828,0,1,1,6.828,6.829A6.828,6.828,0,0,1,47.781,164.609Z"/><path class="d" d="M58.6,168.6a.594.594,0,0,1,.84,0l3.607,3.607a.594.594,0,1,1-.84.84L58.6,169.438A.594.594,0,0,1,58.6,168.6Z"/></g></svg>