<svg xmlns="http://www.w3.org/2000/svg" width="36.544" height="34.999" viewBox="0 0 36.544 34.999"><defs><style>.a{fill:#acaaaa;fill-rule:evenodd;}.b{fill:#fff;}.c{fill:#9cdfee;}</style></defs><path class="a" d="M125.967,662.525A9.968,9.968,0,0,0,116,672.493c0,5.77-1.21,9.243-2.37,11.25h24.677c-1.16-2.006-2.37-5.48-2.37-11.25a9.968,9.968,0,0,0-9.968-9.969Zm-4.771-1.551a12.468,12.468,0,0,1,17.24,11.52c0,5.416,1.134,8.441,2.035,10h0a2.5,2.5,0,0,1-2.156,3.75h-24.7a2.5,2.5,0,0,1-2.156-3.75h0c.9-1.558,2.035-4.583,2.035-10a12.473,12.473,0,0,1,7.7-11.52Z" transform="translate(-110.124 -657.494)"/><path class="a" d="M119.25,679a1.25,1.25,0,0,1,1.25,1.25v1.25a3.75,3.75,0,0,0,7.5,0v-1.25a1.25,1.25,0,0,1,2.5,0v1.25a6.25,6.25,0,1,1-12.5,0v-1.25A1.25,1.25,0,0,1,119.25,679Z" transform="translate(-108.406 -652.751)"/><path class="a" d="M129.117,658.582a1.252,1.252,0,0,1,1.725-.39,17.675,17.675,0,0,1,6.39,7.08,1.25,1.25,0,0,1-2.24,1.111,15.152,15.152,0,0,0-5.485-6.076A1.252,1.252,0,0,1,129.117,658.582Z" transform="translate(-105.675 -658)"/><path class="a" d="M118.57,658.582a1.252,1.252,0,0,1-.39,1.725,15.152,15.152,0,0,0-5.485,6.076,1.25,1.25,0,0,1-2.24-1.111,17.675,17.675,0,0,1,6.39-7.08A1.252,1.252,0,0,1,118.57,658.582Z" transform="translate(-110.325 -658)"/><circle class="b" cx="7.7" cy="7.7" r="7.7" transform="translate(21.144 19.598)"/><circle class="c" cx="6.3" cy="6.3" r="6.3" transform="translate(22.544 20.998)"/></svg>