<svg xmlns="http://www.w3.org/2000/svg" width="38.957" height="52" viewBox="0 0 38.957 52">
  <g id="コメント_チャット" data-name="コメント&amp;チャット" transform="translate(-357.379 -683)">
    <g id="グループ_12" data-name="グループ 12" transform="translate(353.379 680.025)">
      <path id="パス_39" data-name="パス 39" d="M16.624,5.779A11.146,11.146,0,0,0,6.344,22.593a1.391,1.391,0,0,1,.142,1.091L5.423,27.409l3.725-1.062a1.391,1.391,0,0,1,1.092.142,11.146,11.146,0,1,0,6.385-20.71ZM7.383,5.9A13.929,13.929,0,1,1,9.352,29.182L5.581,30.257h0a2.435,2.435,0,0,1-3-3v0L3.65,23.48A13.928,13.928,0,0,1,7.383,5.9Z" transform="translate(2 0)" fill="#fff" fill-rule="evenodd"/>
      <path id="パス_40" data-name="パス 40" d="M23,10.331a1.391,1.391,0,0,1,1.462-1.316,13.894,13.894,0,0,1,11.51,20.452l1.076,3.775a2.435,2.435,0,0,1-3,3h0L30.27,35.167a13.894,13.894,0,0,1-19.679-7.645,1.391,1.391,0,0,1,2.625-.921,11.112,11.112,0,0,0,16.165,5.873l.711,1.2.381-1.338L34.2,33.394l-1.062-3.725a1.391,1.391,0,0,1,.143-1.093,11.112,11.112,0,0,0-8.963-16.783A1.391,1.391,0,0,1,23,10.331Z" transform="translate(5.33 2.361)" fill="#fff" fill-rule="evenodd"/>
    </g>
    <text id="_120" data-name="120" transform="translate(368 732)" fill="#fff" font-size="11" font-family="NotoSans-Regular, Noto Sans"><tspan x="0" y="0">120</tspan></text>
  </g>
</svg>
