<svg xmlns="http://www.w3.org/2000/svg" width="36.581" height="53.18" viewBox="0 0 36.581 53.18">
  <g id="don_t_like" data-name="don&apos;t like" transform="translate(-359.938 -613.82)">
    <text id="_599" data-name="599" transform="translate(369 664)" fill="#fff" font-size="11" font-family="NotoSans-Regular, Noto Sans"><tspan x="0" y="0">599</tspan></text>
    <path id="パス_38" data-name="パス 38" d="M28.113,2H32.8a4.08,4.08,0,0,1,2.715.969A4.011,4.011,0,0,1,36.9,5.483V17.671a4.011,4.011,0,0,1-1.378,2.513,4.08,4.08,0,0,1-2.715.969H28.113m-12.3,3.482V31.6a5.2,5.2,0,0,0,1.544,3.694,5.3,5.3,0,0,0,3.727,1.53l7.028-15.671V2H8.3a3.533,3.533,0,0,0-2.315.829,3.474,3.474,0,0,0-1.2,2.131L2.357,20.631a3.461,3.461,0,0,0,.822,2.808,3.528,3.528,0,0,0,2.691,1.2Z" transform="translate(358.621 612.821)" fill="none" stroke="#fff" stroke-linecap="round" stroke-linejoin="round" stroke-width="2"/>
  </g>
</svg>
