<svg xmlns="http://www.w3.org/2000/svg" width="33.302" height="47.999" viewBox="0 0 33.302 47.999">
  <g id="share" transform="translate(-359.698 -753.001)">
    <text id="Share-2" data-name="Share" transform="translate(363 798)" fill="#fff" font-size="11" font-family="NotoSans-Regular, Noto Sans"><tspan x="0" y="0">Share</tspan></text>
    <g id="グループ_13" data-name="グループ 13" transform="translate(358.447 749.553)">
      <path id="パス_41" data-name="パス 41" d="M30.4,3.54a2.34,2.34,0,0,1,2.9,2.9L25.578,33.856v.005a2.355,2.355,0,0,1-4.409.358L15.211,21.629,2.622,15.673a2.355,2.355,0,0,1,.358-4.409h.005Zm.324,1.132L31.044,5.8l.005,0h.008Zm.305,1.137L3.606,13.533l.016.008L16.216,19.5a2.326,2.326,0,0,1,1.125,1.125L23.3,33.218l.008.016,0-.009Z" transform="translate(0 0)" fill="#fff" fill-rule="evenodd"/>
      <path id="パス_42" data-name="パス 42" d="M21.524,11.832a1.177,1.177,0,0,1,0,1.665l-6.652,6.652a1.177,1.177,0,1,1-1.665-1.665l6.652-6.652A1.177,1.177,0,0,1,21.524,11.832Z" transform="translate(2.059 1.425)" fill="#fff" fill-rule="evenodd"/>
    </g>
  </g>
</svg>
